<svg width="85" height="96" viewBox="0 0 85 96" fill="none" xmlns="http://www.w3.org/2000/svg">
<path d="M18.9131 42.5999C22.8343 42.5999 26.0131 39.4211 26.0131 35.4999C26.0131 31.5787 22.8343 28.3999 18.9131 28.3999C14.9919 28.3999 11.8131 31.5787 11.8131 35.4999C11.8131 39.4211 14.9919 42.5999 18.9131 42.5999Z" fill="#B70010"/>
<path d="M38.4131 37.7001C36.6131 37.6001 35.1131 39.0001 35.0131 40.7001C34.9131 42.3001 34.3131 45.0001 33.3131 45.9001C33.1131 46.0001 33.0131 46.1001 32.6131 46.1001C30.4131 45.9001 28.8131 45.6001 27.2131 45.3001C24.5131 44.9001 22.2131 44.5001 18.9131 44.5001C6.51313 44.5001 0.813126 52.8001 0.513126 53.1001C-0.186874 54.2001 -0.186875 55.7001 0.613125 56.8001L6.21313 64.7001C6.81313 65.6001 7.81313 66.0001 8.81313 66.0001C9.41313 66.0001 10.1131 65.8001 10.7131 65.4001C10.9131 65.3001 11.0131 65.1001 11.2131 65.0001V67.0001L5.71313 90.6001C5.21313 92.5001 6.41313 94.5001 8.31313 94.9001C8.61313 95.0001 8.81312 95.0001 9.11312 95.0001C10.7131 95.0001 12.2131 93.9001 12.6131 92.2001L18.0131 68.8001H19.4131L19.7131 91.5001C19.7131 93.5001 21.3131 95.1001 23.3131 95.0001C25.3131 95.0001 26.9131 93.4001 26.8131 91.4001L26.5131 51.8001C28.0131 52.1001 29.7131 52.3001 31.8131 52.6001C33.9131 52.8001 35.9131 52.2001 37.4131 50.9001C40.9131 47.9001 41.3131 42.2001 41.4131 41.1001C41.5131 39.3001 40.1131 37.8001 38.4131 37.7001ZM11.2131 60.6001L7.31313 55.1001C8.21313 54.3001 9.51313 53.3001 11.3131 52.5001L11.2131 60.6001Z" fill="#B70010"/>
<path d="M65.5131 42.5999C69.4343 42.5999 72.6131 39.4211 72.6131 35.4999C72.6131 31.5787 69.4343 28.3999 65.5131 28.3999C61.5919 28.3999 58.4131 31.5787 58.4131 35.4999C58.4131 39.4211 61.5919 42.5999 65.5131 42.5999Z" fill="#B70010"/>
<path d="M83.9131 53.2001C83.7131 52.8001 78.0131 44.6001 65.5131 44.6001C53.0131 44.6001 47.4131 52.8001 47.2131 53.2001C46.5131 54.3001 46.5131 55.8001 47.3131 56.9001L52.9131 64.8001C53.5131 65.7001 54.5131 66.1001 55.5131 66.1001C56.1131 66.1001 56.8131 65.9001 57.4131 65.5001C57.6131 65.4001 57.7131 65.2001 57.9131 65.1001V67.3001L55.9131 91.1001C55.7131 93.1001 57.2131 94.8001 59.2131 95.0001C61.2131 95.2001 62.9131 93.7001 63.1131 91.7001L65.0131 68.8001H66.2131L68.1131 91.7001C68.3131 93.6001 69.8131 95.0001 71.7131 95.0001C71.8131 95.0001 71.9131 95.0001 72.0131 95.0001C74.0131 94.8001 75.4131 93.1001 75.3131 91.1001L73.3131 67.3001V65.1001C73.4131 65.2001 73.6131 65.4001 73.8131 65.5001C74.4131 65.9001 75.0131 66.1001 75.7131 66.1001C76.7131 66.1001 77.7131 65.6001 78.3131 64.8001L83.9131 56.9001C84.6131 55.7001 84.6131 54.3001 83.9131 53.2001ZM57.9131 60.6001L54.0131 55.1001C54.9131 54.3001 56.2131 53.3001 58.0131 52.5001L57.9131 60.6001ZM73.2131 60.6001V52.6001C75.0131 53.4001 76.3131 54.4001 77.1131 55.2001L73.2131 60.6001Z" fill="#B70010"/>
<path d="M64.2131 14.6C64.2131 6.5 56.4131 0 46.8131 0C37.2131 0 29.4131 6.5 29.4131 14.6C29.4131 18.7 31.5131 22.5 34.8131 25.1C34.1131 27 32.8131 29.8 31.1131 31.6C30.5131 32.3 31.0131 33.4 31.9131 33.3C37.3131 33 40.8131 30.5 42.7131 28.7C44.0131 29 45.4131 29.1 46.8131 29.1C56.4131 29.3 64.2131 22.7 64.2131 14.6ZM55.4131 21.8C55.4131 21.9 55.4131 22.1 55.3131 22.2C55.2131 22.3 55.1131 22.4 54.9131 22.4H50.8131C50.6131 22.4 50.4131 22.2 50.4131 22L49.9131 19.8H54.5131L55.4131 21.8ZM47.5131 11.2H47.9131C48.1131 11.2 48.2131 11.3 48.3131 11.5L49.5131 14.6C49.6131 14.8 49.7131 14.9 49.9131 15C50.1131 15.1 50.3131 15.1 50.4131 15C50.6131 14.9 50.7131 14.8 50.8131 14.6C50.9131 14.4 50.9131 14.2 50.8131 14.1L49.6131 11C49.3131 10.3 48.7131 9.8 47.9131 9.8H47.5131V5.1C47.5131 4.9 47.7131 4.7 47.9131 4.7H48.2131C48.3131 4.7 48.5131 4.8 48.5131 4.9L53.0131 11.6C53.5131 12.3 53.8131 13.1 53.8131 14L54.2131 18.4H49.2131L48.3131 17.5C47.8131 17 47.5131 16.4 47.5131 15.7V11.2ZM43.1131 22C43.1131 22.2 42.9131 22.4 42.7131 22.4H38.6131C38.5131 22.4 38.3131 22.3 38.2131 22.2C38.1131 22.1 38.1131 21.9 38.1131 21.8L38.9131 19.8H43.5131L43.1131 22ZM46.1131 9.8H45.7131C44.9131 9.8 44.3131 10.3 44.0131 11L42.8131 14.1C42.7131 14.5 42.8131 14.9 43.2131 15C43.4131 15.1 43.6131 15.1 43.7131 15C43.9131 14.9 44.0131 14.8 44.1131 14.6L45.3131 11.5C45.4131 11.3 45.5131 11.2 45.7131 11.2H46.1131V15.6C46.1131 16.3 45.8131 17 45.3131 17.4L44.2131 18.3H39.2131L39.6131 13.9C39.7131 13.1 40.0131 12.3 40.4131 11.5L44.9131 4.8C45.0131 4.7 45.1131 4.6 45.2131 4.6H45.5131C45.7131 4.6 45.9131 4.8 45.9131 5V9.8H46.1131Z" fill="#B70010"/>
</svg>
