<svg width="85" height="85" viewBox="0 0 85 85" fill="none" xmlns="http://www.w3.org/2000/svg">
<path d="M28.3346 0.220024C27.3206 0.602333 26.6391 1.21736 26.1737 2.16483L25.7415 3.02919V42.5071C25.7415 81.9019 25.7415 82.0017 26.0906 82.7497C26.7887 84.3122 27.8692 84.9771 29.6478 84.9771C31.4762 84.9771 32.673 84.1792 33.288 82.5502C33.5374 81.9019 33.554 78.4112 33.5207 42.2578L33.4709 2.68012L32.9722 1.86563C32.0081 0.319756 29.9636 -0.395004 28.3346 0.220024Z" fill="#B70010"/>
<path d="M40.951 14.748C40.1531 15.1137 39.3386 15.9115 38.9231 16.7427C38.6405 17.3078 38.6239 18.6708 38.574 42.0252C38.5408 59.6946 38.574 66.9586 38.707 67.5736C38.9729 68.7704 39.7043 69.7179 40.7515 70.2165C43.1285 71.3136 45.8379 70.0503 46.3532 67.5736C46.4696 66.9752 46.5028 59.0962 46.4862 42.0252C46.4363 18.6542 46.4197 17.3078 46.1371 16.7427C45.4224 15.3131 44.0594 14.4322 42.5301 14.4322C41.9982 14.4322 41.3333 14.5651 40.951 14.748Z" fill="#B70010"/>
<path d="M66.516 14.8474C65.5187 15.3461 64.8538 16.144 64.538 17.2244C64.1889 18.3714 64.1889 66.709 64.538 67.8559C65.0865 69.6677 66.6158 70.7149 68.544 70.5819C70.04 70.4822 71.0373 69.8506 71.7022 68.5374L72.2009 67.5567V42.457V17.3408L71.8352 16.6593C70.7547 14.648 68.4775 13.8667 66.516 14.8474Z" fill="#B70010"/>
<path d="M15.5687 21.8125C14.1558 22.3278 13.2416 23.375 12.9424 24.8046C12.826 25.403 12.7762 31.0379 12.8094 43.0226C12.8593 59.3457 12.8759 60.4261 13.1585 61.0578C14.5381 64.1329 18.8599 64.216 20.3559 61.2074C20.6551 60.5757 20.6718 59.9773 20.6718 42.5239C20.6718 25.2534 20.6551 24.4721 20.3559 23.9069C19.3919 22.0951 17.2808 21.1643 15.5687 21.8125Z" fill="#B70010"/>
<path d="M53.75 29.2091C53.3843 29.3754 52.8524 29.7743 52.5532 30.0735C51.4728 31.2204 51.506 30.7716 51.506 42.5901V53.2948L51.9715 54.1758C52.6031 55.3892 53.6337 56.0375 55.0964 56.1206C56.393 56.2037 57.3571 55.8879 58.1383 55.1233C59.3019 53.993 59.2354 54.7077 59.2853 42.9391C59.3185 35.2264 59.2853 32.1014 59.1357 31.6027C58.8863 30.7051 57.9389 29.5915 57.0911 29.2091C56.1935 28.7936 54.631 28.8102 53.75 29.2091Z" fill="#B70010"/>
<path d="M2.15453 36.473C1.17382 36.9717 0.409191 37.8859 0.126613 38.9165C0.026879 39.3154 -0.0229879 40.8945 0.0102567 42.9224C0.0601235 45.9643 0.0933681 46.33 0.425814 46.9284C0.874615 47.7761 1.37328 48.2416 2.30413 48.6571C3.7004 49.2888 5.37925 49.0394 6.49295 48.0421C7.68975 46.9617 7.78948 46.596 7.78948 42.5401C7.78948 39.2489 7.75624 38.9165 7.44042 38.2516C6.49295 36.2901 4.13258 35.4923 2.15453 36.473Z" fill="#B70010"/>
<path d="M79.7806 36.2569C78.9495 36.5727 78.0186 37.4371 77.6197 38.2516C77.3039 38.9165 77.2706 39.2489 77.2706 42.5401C77.2706 46.596 77.3704 46.9617 78.5672 48.0421C79.6809 49.0394 81.3597 49.2888 82.756 48.6571C83.6868 48.2416 84.1855 47.7761 84.6343 46.9284C84.9834 46.2968 85 46.0308 85 42.5069V38.7502L84.5013 37.9358C83.7866 36.7888 82.6895 36.1572 81.3597 36.0907C80.8112 36.0741 80.0964 36.1405 79.7806 36.2569Z" fill="#B70010"/>
</svg>
